<mxfile host="Electron" agent="Mozilla/5.0 (Windows NT 10.0; Win64; x64) AppleWebKit/537.36 (KHTML, like Gecko) draw.io/25.0.2 Chrome/128.0.6613.186 Electron/32.2.5 Safari/537.36" version="25.0.2">
  <diagram name="Page-1" id="KKeWyJYBRn5aftWVJtru">
    <mxGraphModel dx="3134" dy="836" grid="1" gridSize="10" guides="1" tooltips="1" connect="1" arrows="1" fold="1" page="1" pageScale="1" pageWidth="850" pageHeight="1100" math="0" shadow="0">
      <root>
        <mxCell id="0" />
        <mxCell id="1" parent="0" />
        <mxCell id="Fn9HW5KK04FN8IUDYLo9-58" value="google_adapter" style="shape=module;align=left;spacingLeft=20;align=center;verticalAlign=top;whiteSpace=wrap;html=1;" parent="1" vertex="1">
          <mxGeometry x="-122" y="1386" width="210" height="100" as="geometry" />
        </mxCell>
        <mxCell id="Fn9HW5KK04FN8IUDYLo9-13" value="ui_library" style="shape=module;align=left;spacingLeft=20;align=center;verticalAlign=top;whiteSpace=wrap;html=1;" parent="1" vertex="1">
          <mxGeometry x="160" y="160" width="610" height="190" as="geometry" />
        </mxCell>
        <mxCell id="Fn9HW5KK04FN8IUDYLo9-1" value="ListView" style="swimlane;fontStyle=1;align=center;verticalAlign=top;childLayout=stackLayout;horizontal=1;startSize=26;horizontalStack=0;resizeParent=1;resizeParentMax=0;resizeLast=0;collapsible=1;marginBottom=0;whiteSpace=wrap;html=1;" parent="1" vertex="1">
          <mxGeometry x="205" y="200" width="220" height="86" as="geometry" />
        </mxCell>
        <mxCell id="Fn9HW5KK04FN8IUDYLo9-2" value="+ SetItems(items: IListViewItem[])" style="text;strokeColor=none;fillColor=none;align=left;verticalAlign=top;spacingLeft=4;spacingRight=4;overflow=hidden;rotatable=0;points=[[0,0.5],[1,0.5]];portConstraint=eastwest;whiteSpace=wrap;html=1;" parent="Fn9HW5KK04FN8IUDYLo9-1" vertex="1">
          <mxGeometry y="26" width="220" height="26" as="geometry" />
        </mxCell>
        <mxCell id="Fn9HW5KK04FN8IUDYLo9-12" value="" style="line;strokeWidth=1;fillColor=none;align=left;verticalAlign=middle;spacingTop=-1;spacingLeft=3;spacingRight=3;rotatable=0;labelPosition=right;points=[];portConstraint=eastwest;strokeColor=inherit;" parent="Fn9HW5KK04FN8IUDYLo9-1" vertex="1">
          <mxGeometry y="52" width="220" height="8" as="geometry" />
        </mxCell>
        <mxCell id="Fn9HW5KK04FN8IUDYLo9-11" value="- m_items: IListViewItem*[]" style="text;strokeColor=none;fillColor=none;align=left;verticalAlign=top;spacingLeft=4;spacingRight=4;overflow=hidden;rotatable=0;points=[[0,0.5],[1,0.5]];portConstraint=eastwest;whiteSpace=wrap;html=1;" parent="Fn9HW5KK04FN8IUDYLo9-1" vertex="1">
          <mxGeometry y="60" width="220" height="26" as="geometry" />
        </mxCell>
        <mxCell id="Fn9HW5KK04FN8IUDYLo9-5" value="&amp;lt;&amp;lt;interface&amp;gt;&amp;gt;&lt;br&gt;IListViewItem" style="swimlane;fontStyle=3;align=center;verticalAlign=top;childLayout=stackLayout;horizontal=1;startSize=40;horizontalStack=0;resizeParent=1;resizeParentMax=0;resizeLast=0;collapsible=1;marginBottom=0;whiteSpace=wrap;html=1;" parent="1" vertex="1">
          <mxGeometry x="480" y="197" width="160" height="92" as="geometry" />
        </mxCell>
        <mxCell id="Fn9HW5KK04FN8IUDYLo9-8" value="+Draw()" style="text;strokeColor=none;fillColor=none;align=left;verticalAlign=top;spacingLeft=4;spacingRight=4;overflow=hidden;rotatable=0;points=[[0,0.5],[1,0.5]];portConstraint=eastwest;whiteSpace=wrap;html=1;fontStyle=2" parent="Fn9HW5KK04FN8IUDYLo9-5" vertex="1">
          <mxGeometry y="40" width="160" height="26" as="geometry" />
        </mxCell>
        <mxCell id="Fn9HW5KK04FN8IUDYLo9-9" value="..." style="text;strokeColor=none;fillColor=none;align=left;verticalAlign=top;spacingLeft=4;spacingRight=4;overflow=hidden;rotatable=0;points=[[0,0.5],[1,0.5]];portConstraint=eastwest;whiteSpace=wrap;html=1;" parent="Fn9HW5KK04FN8IUDYLo9-5" vertex="1">
          <mxGeometry y="66" width="160" height="26" as="geometry" />
        </mxCell>
        <mxCell id="Fn9HW5KK04FN8IUDYLo9-10" value="" style="endArrow=diamondThin;endFill=1;endSize=24;html=1;rounded=0;" parent="1" source="Fn9HW5KK04FN8IUDYLo9-5" target="Fn9HW5KK04FN8IUDYLo9-1" edge="1">
          <mxGeometry width="160" relative="1" as="geometry">
            <mxPoint x="500" y="390" as="sourcePoint" />
            <mxPoint x="660" y="390" as="targetPoint" />
          </mxGeometry>
        </mxCell>
        <mxCell id="Fn9HW5KK04FN8IUDYLo9-14" value="email_app" style="shape=module;align=left;spacingLeft=20;align=center;verticalAlign=top;whiteSpace=wrap;html=1;" parent="1" vertex="1">
          <mxGeometry x="190" y="390" width="510" height="210" as="geometry" />
        </mxCell>
        <mxCell id="Fn9HW5KK04FN8IUDYLo9-15" value="MessageListItemView" style="swimlane;fontStyle=1;align=center;verticalAlign=top;childLayout=stackLayout;horizontal=1;startSize=26;horizontalStack=0;resizeParent=1;resizeParentMax=0;resizeLast=0;collapsible=1;marginBottom=0;whiteSpace=wrap;html=1;" parent="1" vertex="1">
          <mxGeometry x="510" y="420" width="160" height="52" as="geometry" />
        </mxCell>
        <mxCell id="Fn9HW5KK04FN8IUDYLo9-19" value="+Draw()" style="text;strokeColor=none;fillColor=none;align=left;verticalAlign=top;spacingLeft=4;spacingRight=4;overflow=hidden;rotatable=0;points=[[0,0.5],[1,0.5]];portConstraint=eastwest;whiteSpace=wrap;html=1;fontStyle=2" parent="Fn9HW5KK04FN8IUDYLo9-15" vertex="1">
          <mxGeometry y="26" width="160" height="26" as="geometry" />
        </mxCell>
        <mxCell id="Fn9HW5KK04FN8IUDYLo9-20" value="" style="endArrow=block;dashed=1;endFill=0;endSize=12;html=1;rounded=0;" parent="1" source="Fn9HW5KK04FN8IUDYLo9-15" target="Fn9HW5KK04FN8IUDYLo9-5" edge="1">
          <mxGeometry width="160" relative="1" as="geometry">
            <mxPoint x="470" y="380" as="sourcePoint" />
            <mxPoint x="630" y="380" as="targetPoint" />
          </mxGeometry>
        </mxCell>
        <mxCell id="Fn9HW5KK04FN8IUDYLo9-28" style="edgeStyle=orthogonalEdgeStyle;rounded=0;orthogonalLoop=1;jettySize=auto;html=1;" parent="1" source="Fn9HW5KK04FN8IUDYLo9-21" target="Fn9HW5KK04FN8IUDYLo9-27" edge="1">
          <mxGeometry relative="1" as="geometry" />
        </mxCell>
        <mxCell id="Fn9HW5KK04FN8IUDYLo9-21" value="EmailsWindow" style="swimlane;fontStyle=1;align=center;verticalAlign=top;childLayout=stackLayout;horizontal=1;startSize=26;horizontalStack=0;resizeParent=1;resizeParentMax=0;resizeLast=0;collapsible=1;marginBottom=0;whiteSpace=wrap;html=1;" parent="1" vertex="1">
          <mxGeometry x="230" y="420" width="170" height="52" as="geometry" />
        </mxCell>
        <mxCell id="Fn9HW5KK04FN8IUDYLo9-24" value="- m_emailsListView:ListView" style="text;strokeColor=none;fillColor=none;align=left;verticalAlign=top;spacingLeft=4;spacingRight=4;overflow=hidden;rotatable=0;points=[[0,0.5],[1,0.5]];portConstraint=eastwest;whiteSpace=wrap;html=1;" parent="Fn9HW5KK04FN8IUDYLo9-21" vertex="1">
          <mxGeometry y="26" width="170" height="26" as="geometry" />
        </mxCell>
        <mxCell id="Fn9HW5KK04FN8IUDYLo9-25" value="" style="endArrow=diamondThin;endFill=1;endSize=24;html=1;rounded=0;" parent="1" source="Fn9HW5KK04FN8IUDYLo9-1" target="Fn9HW5KK04FN8IUDYLo9-21" edge="1">
          <mxGeometry width="160" relative="1" as="geometry">
            <mxPoint x="310" y="360" as="sourcePoint" />
            <mxPoint x="470" y="360" as="targetPoint" />
          </mxGeometry>
        </mxCell>
        <mxCell id="Fn9HW5KK04FN8IUDYLo9-26" value="Use" style="endArrow=open;endSize=12;dashed=1;html=1;rounded=0;" parent="1" source="Fn9HW5KK04FN8IUDYLo9-21" target="Fn9HW5KK04FN8IUDYLo9-15" edge="1">
          <mxGeometry width="160" relative="1" as="geometry">
            <mxPoint x="370" y="570" as="sourcePoint" />
            <mxPoint x="530" y="570" as="targetPoint" />
          </mxGeometry>
        </mxCell>
        <mxCell id="Fn9HW5KK04FN8IUDYLo9-27" value="emailViews = [];&lt;br&gt;for (auto email: emails) {&lt;br&gt;&amp;nbsp; emailViews.push_back(new MessageListItemView(email)) &lt;br&gt;}&lt;br&gt;m_emailsListView.Setviews(emailViews);" style="shape=note;whiteSpace=wrap;html=1;backgroundOutline=1;darkOpacity=0.05;align=left;size=17;fillColor=#ffff88;strokeColor=#36393d;fontFamily=Lucida Console;" parent="1" vertex="1">
          <mxGeometry x="110" y="500" width="410" height="76" as="geometry" />
        </mxCell>
        <mxCell id="Fn9HW5KK04FN8IUDYLo9-29" value="Client" style="swimlane;fontStyle=1;align=center;verticalAlign=top;childLayout=stackLayout;horizontal=1;startSize=26;horizontalStack=0;resizeParent=1;resizeParentMax=0;resizeLast=0;collapsible=1;marginBottom=0;whiteSpace=wrap;html=1;" parent="1" vertex="1">
          <mxGeometry x="310" y="750" width="160" height="50" as="geometry" />
        </mxCell>
        <mxCell id="Fn9HW5KK04FN8IUDYLo9-30" value="google" style="shape=module;align=left;spacingLeft=20;align=center;verticalAlign=top;whiteSpace=wrap;html=1;" parent="1" vertex="1">
          <mxGeometry x="-110" y="910" width="190" height="100" as="geometry" />
        </mxCell>
        <mxCell id="Fn9HW5KK04FN8IUDYLo9-31" value="TextToSpeech" style="swimlane;fontStyle=1;align=center;verticalAlign=top;childLayout=stackLayout;horizontal=1;startSize=26;horizontalStack=0;resizeParent=1;resizeParentMax=0;resizeLast=0;collapsible=1;marginBottom=0;whiteSpace=wrap;html=1;" parent="1" vertex="1">
          <mxGeometry x="-80" y="940" width="126" height="52" as="geometry" />
        </mxCell>
        <mxCell id="Fn9HW5KK04FN8IUDYLo9-32" value="" style="text;strokeColor=#b85450;fillColor=#f8cecc;align=left;verticalAlign=top;spacingLeft=4;spacingRight=4;overflow=hidden;rotatable=0;points=[[0,0.5],[1,0.5]];portConstraint=eastwest;whiteSpace=wrap;html=1;" parent="Fn9HW5KK04FN8IUDYLo9-31" vertex="1">
          <mxGeometry y="26" width="126" height="26" as="geometry" />
        </mxCell>
        <mxCell id="Fn9HW5KK04FN8IUDYLo9-33" value="amazon" style="shape=module;align=left;spacingLeft=20;align=center;verticalAlign=top;whiteSpace=wrap;html=1;" parent="1" vertex="1">
          <mxGeometry x="110" y="910" width="190" height="100" as="geometry" />
        </mxCell>
        <mxCell id="Fn9HW5KK04FN8IUDYLo9-34" value="Polly" style="swimlane;fontStyle=1;align=center;verticalAlign=top;childLayout=stackLayout;horizontal=1;startSize=26;horizontalStack=0;resizeParent=1;resizeParentMax=0;resizeLast=0;collapsible=1;marginBottom=0;whiteSpace=wrap;html=1;" parent="1" vertex="1">
          <mxGeometry x="170" y="950" width="96" height="52" as="geometry" />
        </mxCell>
        <mxCell id="Fn9HW5KK04FN8IUDYLo9-35" value="" style="text;strokeColor=#82b366;fillColor=#d5e8d4;align=left;verticalAlign=top;spacingLeft=4;spacingRight=4;overflow=hidden;rotatable=0;points=[[0,0.5],[1,0.5]];portConstraint=eastwest;whiteSpace=wrap;html=1;" parent="Fn9HW5KK04FN8IUDYLo9-34" vertex="1">
          <mxGeometry y="26" width="96" height="26" as="geometry" />
        </mxCell>
        <mxCell id="Fn9HW5KK04FN8IUDYLo9-36" value="ya_cloud" style="shape=module;align=left;spacingLeft=20;align=center;verticalAlign=top;whiteSpace=wrap;html=1;" parent="1" vertex="1">
          <mxGeometry x="318" y="910" width="260" height="100" as="geometry" />
        </mxCell>
        <mxCell id="Fn9HW5KK04FN8IUDYLo9-37" value="TTSService" style="swimlane;fontStyle=1;align=center;verticalAlign=top;childLayout=stackLayout;horizontal=1;startSize=26;horizontalStack=0;resizeParent=1;resizeParentMax=0;resizeLast=0;collapsible=1;marginBottom=0;whiteSpace=wrap;html=1;" parent="1" vertex="1">
          <mxGeometry x="400" y="940" width="108" height="52" as="geometry" />
        </mxCell>
        <mxCell id="Fn9HW5KK04FN8IUDYLo9-38" value="" style="text;strokeColor=#9673a6;fillColor=#e1d5e7;align=left;verticalAlign=top;spacingLeft=4;spacingRight=4;overflow=hidden;rotatable=0;points=[[0,0.5],[1,0.5]];portConstraint=eastwest;whiteSpace=wrap;html=1;" parent="Fn9HW5KK04FN8IUDYLo9-37" vertex="1">
          <mxGeometry y="26" width="108" height="26" as="geometry" />
        </mxCell>
        <mxCell id="Fn9HW5KK04FN8IUDYLo9-39" value="tts_library_from_the_future" style="shape=module;align=left;spacingLeft=20;align=center;verticalAlign=top;whiteSpace=wrap;html=1;" parent="1" vertex="1">
          <mxGeometry x="610" y="910" width="260" height="100" as="geometry" />
        </mxCell>
        <mxCell id="Fn9HW5KK04FN8IUDYLo9-40" value="???" style="swimlane;fontStyle=1;align=center;verticalAlign=top;childLayout=stackLayout;horizontal=1;startSize=26;horizontalStack=0;resizeParent=1;resizeParentMax=0;resizeLast=0;collapsible=1;marginBottom=0;whiteSpace=wrap;html=1;fillColor=#dae8fc;strokeColor=#6c8ebf;" parent="1" vertex="1">
          <mxGeometry x="664" y="940" width="160" height="52" as="geometry" />
        </mxCell>
        <mxCell id="Fn9HW5KK04FN8IUDYLo9-41" value="" style="text;strokeColor=#d6b656;fillColor=#fff2cc;align=left;verticalAlign=top;spacingLeft=4;spacingRight=4;overflow=hidden;rotatable=0;points=[[0,0.5],[1,0.5]];portConstraint=eastwest;whiteSpace=wrap;html=1;" parent="Fn9HW5KK04FN8IUDYLo9-40" vertex="1">
          <mxGeometry y="26" width="160" height="26" as="geometry" />
        </mxCell>
        <mxCell id="Fn9HW5KK04FN8IUDYLo9-42" value="Client" style="swimlane;fontStyle=1;align=center;verticalAlign=top;childLayout=stackLayout;horizontal=1;startSize=26;horizontalStack=0;resizeParent=1;resizeParentMax=0;resizeLast=0;collapsible=1;marginBottom=0;whiteSpace=wrap;html=1;" parent="1" vertex="1">
          <mxGeometry x="310" y="1130" width="160" height="50" as="geometry" />
        </mxCell>
        <mxCell id="Fn9HW5KK04FN8IUDYLo9-43" value="google" style="shape=module;align=left;spacingLeft=20;align=center;verticalAlign=top;whiteSpace=wrap;html=1;" parent="1" vertex="1">
          <mxGeometry x="-120" y="1540" width="190" height="100" as="geometry" />
        </mxCell>
        <mxCell id="Fn9HW5KK04FN8IUDYLo9-44" value="TextToSpeech" style="swimlane;fontStyle=1;align=center;verticalAlign=top;childLayout=stackLayout;horizontal=1;startSize=26;horizontalStack=0;resizeParent=1;resizeParentMax=0;resizeLast=0;collapsible=1;marginBottom=0;whiteSpace=wrap;html=1;" parent="1" vertex="1">
          <mxGeometry x="-90" y="1570" width="126" height="52" as="geometry" />
        </mxCell>
        <mxCell id="Fn9HW5KK04FN8IUDYLo9-45" value="" style="text;strokeColor=#b85450;fillColor=#f8cecc;align=left;verticalAlign=top;spacingLeft=4;spacingRight=4;overflow=hidden;rotatable=0;points=[[0,0.5],[1,0.5]];portConstraint=eastwest;whiteSpace=wrap;html=1;" parent="Fn9HW5KK04FN8IUDYLo9-44" vertex="1">
          <mxGeometry y="26" width="126" height="26" as="geometry" />
        </mxCell>
        <mxCell id="Fn9HW5KK04FN8IUDYLo9-46" value="amazon" style="shape=module;align=left;spacingLeft=20;align=center;verticalAlign=top;whiteSpace=wrap;html=1;" parent="1" vertex="1">
          <mxGeometry x="100" y="1540" width="190" height="100" as="geometry" />
        </mxCell>
        <mxCell id="Fn9HW5KK04FN8IUDYLo9-47" value="Polly" style="swimlane;fontStyle=1;align=center;verticalAlign=top;childLayout=stackLayout;horizontal=1;startSize=26;horizontalStack=0;resizeParent=1;resizeParentMax=0;resizeLast=0;collapsible=1;marginBottom=0;whiteSpace=wrap;html=1;" parent="1" vertex="1">
          <mxGeometry x="162" y="1570" width="96" height="52" as="geometry" />
        </mxCell>
        <mxCell id="Fn9HW5KK04FN8IUDYLo9-48" value="" style="text;strokeColor=#82b366;fillColor=#d5e8d4;align=left;verticalAlign=top;spacingLeft=4;spacingRight=4;overflow=hidden;rotatable=0;points=[[0,0.5],[1,0.5]];portConstraint=eastwest;whiteSpace=wrap;html=1;" parent="Fn9HW5KK04FN8IUDYLo9-47" vertex="1">
          <mxGeometry y="26" width="96" height="26" as="geometry" />
        </mxCell>
        <mxCell id="Fn9HW5KK04FN8IUDYLo9-49" value="ya_cloud" style="shape=module;align=left;spacingLeft=20;align=center;verticalAlign=top;whiteSpace=wrap;html=1;" parent="1" vertex="1">
          <mxGeometry x="308" y="1540" width="260" height="100" as="geometry" />
        </mxCell>
        <mxCell id="Fn9HW5KK04FN8IUDYLo9-50" value="TTSService" style="swimlane;fontStyle=1;align=center;verticalAlign=top;childLayout=stackLayout;horizontal=1;startSize=26;horizontalStack=0;resizeParent=1;resizeParentMax=0;resizeLast=0;collapsible=1;marginBottom=0;whiteSpace=wrap;html=1;" parent="1" vertex="1">
          <mxGeometry x="390" y="1570" width="108" height="52" as="geometry" />
        </mxCell>
        <mxCell id="Fn9HW5KK04FN8IUDYLo9-51" value="" style="text;strokeColor=#9673a6;fillColor=#e1d5e7;align=left;verticalAlign=top;spacingLeft=4;spacingRight=4;overflow=hidden;rotatable=0;points=[[0,0.5],[1,0.5]];portConstraint=eastwest;whiteSpace=wrap;html=1;" parent="Fn9HW5KK04FN8IUDYLo9-50" vertex="1">
          <mxGeometry y="26" width="108" height="26" as="geometry" />
        </mxCell>
        <mxCell id="Fn9HW5KK04FN8IUDYLo9-52" value="tts_library_from_the_future" style="shape=module;align=left;spacingLeft=20;align=center;verticalAlign=top;whiteSpace=wrap;html=1;" parent="1" vertex="1">
          <mxGeometry x="600" y="1540" width="260" height="100" as="geometry" />
        </mxCell>
        <mxCell id="Fn9HW5KK04FN8IUDYLo9-53" value="???" style="swimlane;fontStyle=1;align=center;verticalAlign=top;childLayout=stackLayout;horizontal=1;startSize=26;horizontalStack=0;resizeParent=1;resizeParentMax=0;resizeLast=0;collapsible=1;marginBottom=0;whiteSpace=wrap;html=1;fillColor=#dae8fc;strokeColor=#6c8ebf;" parent="1" vertex="1">
          <mxGeometry x="654" y="1570" width="160" height="52" as="geometry" />
        </mxCell>
        <mxCell id="Fn9HW5KK04FN8IUDYLo9-54" value="" style="text;strokeColor=#d6b656;fillColor=#fff2cc;align=left;verticalAlign=top;spacingLeft=4;spacingRight=4;overflow=hidden;rotatable=0;points=[[0,0.5],[1,0.5]];portConstraint=eastwest;whiteSpace=wrap;html=1;" parent="Fn9HW5KK04FN8IUDYLo9-53" vertex="1">
          <mxGeometry y="26" width="160" height="26" as="geometry" />
        </mxCell>
        <mxCell id="Fn9HW5KK04FN8IUDYLo9-55" value="ITTSService" style="swimlane;fontStyle=3;align=center;verticalAlign=top;childLayout=stackLayout;horizontal=1;startSize=26;horizontalStack=0;resizeParent=1;resizeParentMax=0;resizeLast=0;collapsible=1;marginBottom=0;whiteSpace=wrap;html=1;" parent="1" vertex="1">
          <mxGeometry x="303" y="1230" width="174" height="52" as="geometry" />
        </mxCell>
        <mxCell id="Fn9HW5KK04FN8IUDYLo9-56" value="+TextToSpeech(text):Speech" style="text;strokeColor=#36393d;fillColor=#ffff88;align=left;verticalAlign=top;spacingLeft=4;spacingRight=4;overflow=hidden;rotatable=0;points=[[0,0.5],[1,0.5]];portConstraint=eastwest;whiteSpace=wrap;html=1;" parent="Fn9HW5KK04FN8IUDYLo9-55" vertex="1">
          <mxGeometry y="26" width="174" height="26" as="geometry" />
        </mxCell>
        <mxCell id="Fn9HW5KK04FN8IUDYLo9-57" value="Use" style="endArrow=open;endSize=12;dashed=1;html=1;rounded=0;" parent="1" source="Fn9HW5KK04FN8IUDYLo9-42" target="Fn9HW5KK04FN8IUDYLo9-55" edge="1">
          <mxGeometry width="160" relative="1" as="geometry">
            <mxPoint x="730" y="1360" as="sourcePoint" />
            <mxPoint x="890" y="1360" as="targetPoint" />
          </mxGeometry>
        </mxCell>
        <mxCell id="Fn9HW5KK04FN8IUDYLo9-59" value="GoogleTTSAdapter" style="swimlane;fontStyle=1;align=center;verticalAlign=top;childLayout=stackLayout;horizontal=1;startSize=26;horizontalStack=0;resizeParent=1;resizeParentMax=0;resizeLast=0;collapsible=1;marginBottom=0;whiteSpace=wrap;html=1;" parent="1" vertex="1">
          <mxGeometry x="-82" y="1416" width="146" height="52" as="geometry" />
        </mxCell>
        <mxCell id="Fn9HW5KK04FN8IUDYLo9-60" value="" style="text;strokeColor=#b85450;fillColor=#f8cecc;align=left;verticalAlign=top;spacingLeft=4;spacingRight=4;overflow=hidden;rotatable=0;points=[[0,0.5],[1,0.5]];portConstraint=eastwest;whiteSpace=wrap;html=1;" parent="Fn9HW5KK04FN8IUDYLo9-59" vertex="1">
          <mxGeometry y="26" width="146" height="26" as="geometry" />
        </mxCell>
        <mxCell id="Fn9HW5KK04FN8IUDYLo9-61" value="" style="endArrow=block;dashed=1;endFill=0;endSize=12;html=1;rounded=0;" parent="1" source="Fn9HW5KK04FN8IUDYLo9-59" target="Fn9HW5KK04FN8IUDYLo9-55" edge="1">
          <mxGeometry width="160" relative="1" as="geometry">
            <mxPoint x="110" y="1250" as="sourcePoint" />
            <mxPoint x="270" y="1250" as="targetPoint" />
          </mxGeometry>
        </mxCell>
        <mxCell id="Fn9HW5KK04FN8IUDYLo9-62" value="" style="endArrow=diamondThin;endFill=0;endSize=24;html=1;rounded=0;" parent="1" source="Fn9HW5KK04FN8IUDYLo9-44" target="Fn9HW5KK04FN8IUDYLo9-59" edge="1">
          <mxGeometry width="160" relative="1" as="geometry">
            <mxPoint x="-140" y="1280" as="sourcePoint" />
            <mxPoint x="20" y="1280" as="targetPoint" />
          </mxGeometry>
        </mxCell>
        <mxCell id="Fn9HW5KK04FN8IUDYLo9-63" value="amazon_adapter" style="shape=module;align=left;spacingLeft=20;align=center;verticalAlign=top;whiteSpace=wrap;html=1;" parent="1" vertex="1">
          <mxGeometry x="108" y="1386" width="210" height="100" as="geometry" />
        </mxCell>
        <mxCell id="Fn9HW5KK04FN8IUDYLo9-64" value="PollyTTSAdapter" style="swimlane;fontStyle=1;align=center;verticalAlign=top;childLayout=stackLayout;horizontal=1;startSize=26;horizontalStack=0;resizeParent=1;resizeParentMax=0;resizeLast=0;collapsible=1;marginBottom=0;whiteSpace=wrap;html=1;" parent="1" vertex="1">
          <mxGeometry x="162" y="1416" width="136" height="52" as="geometry" />
        </mxCell>
        <mxCell id="Fn9HW5KK04FN8IUDYLo9-65" value="" style="text;strokeColor=#82b366;fillColor=#d5e8d4;align=left;verticalAlign=top;spacingLeft=4;spacingRight=4;overflow=hidden;rotatable=0;points=[[0,0.5],[1,0.5]];portConstraint=eastwest;whiteSpace=wrap;html=1;" parent="Fn9HW5KK04FN8IUDYLo9-64" vertex="1">
          <mxGeometry y="26" width="136" height="26" as="geometry" />
        </mxCell>
        <mxCell id="Fn9HW5KK04FN8IUDYLo9-66" value="" style="endArrow=block;dashed=1;endFill=0;endSize=12;html=1;rounded=0;" parent="1" source="Fn9HW5KK04FN8IUDYLo9-64" target="Fn9HW5KK04FN8IUDYLo9-55" edge="1">
          <mxGeometry width="160" relative="1" as="geometry">
            <mxPoint x="110" y="1250" as="sourcePoint" />
            <mxPoint x="270" y="1250" as="targetPoint" />
          </mxGeometry>
        </mxCell>
        <mxCell id="Fn9HW5KK04FN8IUDYLo9-67" value="" style="endArrow=diamondThin;endFill=0;endSize=24;html=1;rounded=0;" parent="1" source="Fn9HW5KK04FN8IUDYLo9-47" target="Fn9HW5KK04FN8IUDYLo9-64" edge="1">
          <mxGeometry width="160" relative="1" as="geometry">
            <mxPoint x="170" y="1760" as="sourcePoint" />
            <mxPoint x="330" y="1760" as="targetPoint" />
          </mxGeometry>
        </mxCell>
        <mxCell id="Fn9HW5KK04FN8IUDYLo9-69" value="ya_cloud_adapter" style="shape=module;align=left;spacingLeft=20;align=center;verticalAlign=top;whiteSpace=wrap;html=1;" parent="1" vertex="1">
          <mxGeometry x="332" y="1386" width="226" height="100" as="geometry" />
        </mxCell>
        <mxCell id="Fn9HW5KK04FN8IUDYLo9-70" value="YaCloudTTSAdapter" style="swimlane;fontStyle=1;align=center;verticalAlign=top;childLayout=stackLayout;horizontal=1;startSize=26;horizontalStack=0;resizeParent=1;resizeParentMax=0;resizeLast=0;collapsible=1;marginBottom=0;whiteSpace=wrap;html=1;" parent="1" vertex="1">
          <mxGeometry x="368" y="1416" width="164" height="52" as="geometry" />
        </mxCell>
        <mxCell id="Fn9HW5KK04FN8IUDYLo9-71" value="" style="text;strokeColor=#9673a6;fillColor=#e1d5e7;align=left;verticalAlign=top;spacingLeft=4;spacingRight=4;overflow=hidden;rotatable=0;points=[[0,0.5],[1,0.5]];portConstraint=eastwest;whiteSpace=wrap;html=1;" parent="Fn9HW5KK04FN8IUDYLo9-70" vertex="1">
          <mxGeometry y="26" width="164" height="26" as="geometry" />
        </mxCell>
        <mxCell id="Fn9HW5KK04FN8IUDYLo9-72" value="" style="endArrow=block;dashed=1;endFill=0;endSize=12;html=1;rounded=0;" parent="1" source="Fn9HW5KK04FN8IUDYLo9-70" target="Fn9HW5KK04FN8IUDYLo9-55" edge="1">
          <mxGeometry width="160" relative="1" as="geometry">
            <mxPoint x="110" y="1250" as="sourcePoint" />
            <mxPoint x="270" y="1250" as="targetPoint" />
          </mxGeometry>
        </mxCell>
        <mxCell id="Fn9HW5KK04FN8IUDYLo9-73" value="" style="endArrow=diamondThin;endFill=0;endSize=24;html=1;rounded=0;" parent="1" source="Fn9HW5KK04FN8IUDYLo9-50" target="Fn9HW5KK04FN8IUDYLo9-70" edge="1">
          <mxGeometry width="160" relative="1" as="geometry">
            <mxPoint x="242" y="1590" as="sourcePoint" />
            <mxPoint x="348" y="1472" as="targetPoint" />
          </mxGeometry>
        </mxCell>
        <mxCell id="Fn9HW5KK04FN8IUDYLo9-74" value="future_tts_adapter" style="shape=module;align=left;spacingLeft=20;align=center;verticalAlign=top;whiteSpace=wrap;html=1;" parent="1" vertex="1">
          <mxGeometry x="590" y="1386" width="260" height="100" as="geometry" />
        </mxCell>
        <mxCell id="Fn9HW5KK04FN8IUDYLo9-75" value="???TTSAdapter" style="swimlane;fontStyle=1;align=center;verticalAlign=top;childLayout=stackLayout;horizontal=1;startSize=26;horizontalStack=0;resizeParent=1;resizeParentMax=0;resizeLast=0;collapsible=1;marginBottom=0;whiteSpace=wrap;html=1;fillColor=#dae8fc;strokeColor=#6c8ebf;" parent="1" vertex="1">
          <mxGeometry x="644" y="1416" width="160" height="52" as="geometry" />
        </mxCell>
        <mxCell id="Fn9HW5KK04FN8IUDYLo9-76" value="" style="text;strokeColor=#d6b656;fillColor=#fff2cc;align=left;verticalAlign=top;spacingLeft=4;spacingRight=4;overflow=hidden;rotatable=0;points=[[0,0.5],[1,0.5]];portConstraint=eastwest;whiteSpace=wrap;html=1;" parent="Fn9HW5KK04FN8IUDYLo9-75" vertex="1">
          <mxGeometry y="26" width="160" height="26" as="geometry" />
        </mxCell>
        <mxCell id="Fn9HW5KK04FN8IUDYLo9-77" value="" style="endArrow=block;dashed=1;endFill=0;endSize=12;html=1;rounded=0;" parent="1" source="Fn9HW5KK04FN8IUDYLo9-75" target="Fn9HW5KK04FN8IUDYLo9-55" edge="1">
          <mxGeometry width="160" relative="1" as="geometry">
            <mxPoint x="449" y="1426" as="sourcePoint" />
            <mxPoint x="411" y="1342" as="targetPoint" />
          </mxGeometry>
        </mxCell>
        <mxCell id="Fn9HW5KK04FN8IUDYLo9-78" value="" style="endArrow=diamondThin;endFill=0;endSize=24;html=1;rounded=0;" parent="1" source="Fn9HW5KK04FN8IUDYLo9-53" target="Fn9HW5KK04FN8IUDYLo9-75" edge="1">
          <mxGeometry width="160" relative="1" as="geometry">
            <mxPoint x="455" y="1580" as="sourcePoint" />
            <mxPoint x="459" y="1478" as="targetPoint" />
          </mxGeometry>
        </mxCell>
        <mxCell id="Fn9HW5KK04FN8IUDYLo9-80" value="google_adapter" style="shape=module;align=left;spacingLeft=20;align=center;verticalAlign=top;whiteSpace=wrap;html=1;" parent="1" vertex="1">
          <mxGeometry x="-174" y="2250" width="210" height="116" as="geometry" />
        </mxCell>
        <mxCell id="Fn9HW5KK04FN8IUDYLo9-81" value="Client" style="swimlane;fontStyle=1;align=center;verticalAlign=top;childLayout=stackLayout;horizontal=1;startSize=26;horizontalStack=0;resizeParent=1;resizeParentMax=0;resizeLast=0;collapsible=1;marginBottom=0;whiteSpace=wrap;html=1;" parent="1" vertex="1">
          <mxGeometry x="38" y="1944" width="160" height="50" as="geometry" />
        </mxCell>
        <mxCell id="Fn9HW5KK04FN8IUDYLo9-82" value="google" style="shape=module;align=left;spacingLeft=20;align=center;verticalAlign=top;whiteSpace=wrap;html=1;" parent="1" vertex="1">
          <mxGeometry x="-172" y="2420" width="190" height="100" as="geometry" />
        </mxCell>
        <mxCell id="Fn9HW5KK04FN8IUDYLo9-83" value="TextToSpeech" style="swimlane;fontStyle=1;align=center;verticalAlign=top;childLayout=stackLayout;horizontal=1;startSize=26;horizontalStack=0;resizeParent=1;resizeParentMax=0;resizeLast=0;collapsible=1;marginBottom=0;whiteSpace=wrap;html=1;" parent="1" vertex="1">
          <mxGeometry x="-142" y="2450" width="126" height="52" as="geometry" />
        </mxCell>
        <mxCell id="Fn9HW5KK04FN8IUDYLo9-84" value="" style="text;strokeColor=#b85450;fillColor=#f8cecc;align=left;verticalAlign=top;spacingLeft=4;spacingRight=4;overflow=hidden;rotatable=0;points=[[0,0.5],[1,0.5]];portConstraint=eastwest;whiteSpace=wrap;html=1;" parent="Fn9HW5KK04FN8IUDYLo9-83" vertex="1">
          <mxGeometry y="26" width="126" height="26" as="geometry" />
        </mxCell>
        <mxCell id="Fn9HW5KK04FN8IUDYLo9-85" value="amazon" style="shape=module;align=left;spacingLeft=20;align=center;verticalAlign=top;whiteSpace=wrap;html=1;" parent="1" vertex="1">
          <mxGeometry x="73" y="2420" width="190" height="100" as="geometry" />
        </mxCell>
        <mxCell id="Fn9HW5KK04FN8IUDYLo9-86" value="Polly" style="swimlane;fontStyle=1;align=center;verticalAlign=top;childLayout=stackLayout;horizontal=1;startSize=26;horizontalStack=0;resizeParent=1;resizeParentMax=0;resizeLast=0;collapsible=1;marginBottom=0;whiteSpace=wrap;html=1;" parent="1" vertex="1">
          <mxGeometry x="117" y="2450" width="96" height="52" as="geometry" />
        </mxCell>
        <mxCell id="Fn9HW5KK04FN8IUDYLo9-87" value="" style="text;strokeColor=#82b366;fillColor=#d5e8d4;align=left;verticalAlign=top;spacingLeft=4;spacingRight=4;overflow=hidden;rotatable=0;points=[[0,0.5],[1,0.5]];portConstraint=eastwest;whiteSpace=wrap;html=1;" parent="Fn9HW5KK04FN8IUDYLo9-86" vertex="1">
          <mxGeometry y="26" width="96" height="26" as="geometry" />
        </mxCell>
        <mxCell id="Fn9HW5KK04FN8IUDYLo9-88" value="ya_cloud" style="shape=module;align=left;spacingLeft=20;align=center;verticalAlign=top;whiteSpace=wrap;html=1;" parent="1" vertex="1">
          <mxGeometry x="300" y="2420" width="238" height="100" as="geometry" />
        </mxCell>
        <mxCell id="Fn9HW5KK04FN8IUDYLo9-89" value="TTSService" style="swimlane;fontStyle=1;align=center;verticalAlign=top;childLayout=stackLayout;horizontal=1;startSize=26;horizontalStack=0;resizeParent=1;resizeParentMax=0;resizeLast=0;collapsible=1;marginBottom=0;whiteSpace=wrap;html=1;" parent="1" vertex="1">
          <mxGeometry x="360" y="2450" width="108" height="52" as="geometry" />
        </mxCell>
        <mxCell id="Fn9HW5KK04FN8IUDYLo9-90" value="" style="text;strokeColor=#9673a6;fillColor=#e1d5e7;align=left;verticalAlign=top;spacingLeft=4;spacingRight=4;overflow=hidden;rotatable=0;points=[[0,0.5],[1,0.5]];portConstraint=eastwest;whiteSpace=wrap;html=1;" parent="Fn9HW5KK04FN8IUDYLo9-89" vertex="1">
          <mxGeometry y="26" width="108" height="26" as="geometry" />
        </mxCell>
        <mxCell id="Fn9HW5KK04FN8IUDYLo9-91" value="tts_library_from_the_future" style="shape=module;align=left;spacingLeft=20;align=center;verticalAlign=top;whiteSpace=wrap;html=1;" parent="1" vertex="1">
          <mxGeometry x="570" y="2420" width="260" height="100" as="geometry" />
        </mxCell>
        <mxCell id="Fn9HW5KK04FN8IUDYLo9-92" value="???" style="swimlane;fontStyle=1;align=center;verticalAlign=top;childLayout=stackLayout;horizontal=1;startSize=26;horizontalStack=0;resizeParent=1;resizeParentMax=0;resizeLast=0;collapsible=1;marginBottom=0;whiteSpace=wrap;html=1;fillColor=#dae8fc;strokeColor=#6c8ebf;" parent="1" vertex="1">
          <mxGeometry x="624" y="2450" width="160" height="52" as="geometry" />
        </mxCell>
        <mxCell id="Fn9HW5KK04FN8IUDYLo9-93" value="" style="text;strokeColor=#d6b656;fillColor=#fff2cc;align=left;verticalAlign=top;spacingLeft=4;spacingRight=4;overflow=hidden;rotatable=0;points=[[0,0.5],[1,0.5]];portConstraint=eastwest;whiteSpace=wrap;html=1;" parent="Fn9HW5KK04FN8IUDYLo9-92" vertex="1">
          <mxGeometry y="26" width="160" height="26" as="geometry" />
        </mxCell>
        <mxCell id="Fn9HW5KK04FN8IUDYLo9-94" value="ITTSService" style="swimlane;fontStyle=3;align=center;verticalAlign=top;childLayout=stackLayout;horizontal=1;startSize=26;horizontalStack=0;resizeParent=1;resizeParentMax=0;resizeLast=0;collapsible=1;marginBottom=0;whiteSpace=wrap;html=1;" parent="1" vertex="1">
          <mxGeometry x="31" y="2070" width="174" height="52" as="geometry" />
        </mxCell>
        <mxCell id="Fn9HW5KK04FN8IUDYLo9-95" value="+TextToSpeech(text):Speech" style="text;strokeColor=#36393d;fillColor=#ffff88;align=left;verticalAlign=top;spacingLeft=4;spacingRight=4;overflow=hidden;rotatable=0;points=[[0,0.5],[1,0.5]];portConstraint=eastwest;whiteSpace=wrap;html=1;" parent="Fn9HW5KK04FN8IUDYLo9-94" vertex="1">
          <mxGeometry y="26" width="174" height="26" as="geometry" />
        </mxCell>
        <mxCell id="Fn9HW5KK04FN8IUDYLo9-96" value="" style="endArrow=open;endSize=12;dashed=1;html=1;rounded=0;" parent="1" source="Fn9HW5KK04FN8IUDYLo9-81" target="Fn9HW5KK04FN8IUDYLo9-94" edge="1">
          <mxGeometry width="160" relative="1" as="geometry">
            <mxPoint x="700" y="2270" as="sourcePoint" />
            <mxPoint x="860" y="2270" as="targetPoint" />
          </mxGeometry>
        </mxCell>
        <mxCell id="Fn9HW5KK04FN8IUDYLo9-97" value="GoogleTTSAdapter" style="swimlane;fontStyle=1;align=center;verticalAlign=top;childLayout=stackLayout;horizontal=1;startSize=26;horizontalStack=0;resizeParent=1;resizeParentMax=0;resizeLast=0;collapsible=1;marginBottom=0;whiteSpace=wrap;html=1;" parent="1" vertex="1">
          <mxGeometry x="-134" y="2296" width="146" height="52" as="geometry" />
        </mxCell>
        <mxCell id="Fn9HW5KK04FN8IUDYLo9-98" value="" style="text;strokeColor=#b85450;fillColor=#f8cecc;align=left;verticalAlign=top;spacingLeft=4;spacingRight=4;overflow=hidden;rotatable=0;points=[[0,0.5],[1,0.5]];portConstraint=eastwest;whiteSpace=wrap;html=1;" parent="Fn9HW5KK04FN8IUDYLo9-97" vertex="1">
          <mxGeometry y="26" width="146" height="26" as="geometry" />
        </mxCell>
        <mxCell id="Fn9HW5KK04FN8IUDYLo9-99" value="" style="endArrow=block;dashed=1;endFill=0;endSize=12;html=1;rounded=0;" parent="1" source="Fn9HW5KK04FN8IUDYLo9-97" target="Fn9HW5KK04FN8IUDYLo9-94" edge="1">
          <mxGeometry width="160" relative="1" as="geometry">
            <mxPoint x="80" y="2160" as="sourcePoint" />
            <mxPoint x="240" y="2160" as="targetPoint" />
          </mxGeometry>
        </mxCell>
        <mxCell id="Fn9HW5KK04FN8IUDYLo9-100" value="" style="endArrow=diamondThin;endFill=0;endSize=24;html=1;rounded=0;" parent="1" source="Fn9HW5KK04FN8IUDYLo9-83" target="Fn9HW5KK04FN8IUDYLo9-97" edge="1">
          <mxGeometry width="160" relative="1" as="geometry">
            <mxPoint x="-192" y="2160" as="sourcePoint" />
            <mxPoint x="-32" y="2160" as="targetPoint" />
          </mxGeometry>
        </mxCell>
        <mxCell id="Fn9HW5KK04FN8IUDYLo9-101" value="amazon_adapter" style="shape=module;align=left;spacingLeft=20;align=center;verticalAlign=top;whiteSpace=wrap;html=1;" parent="1" vertex="1">
          <mxGeometry x="63" y="2250" width="210" height="116" as="geometry" />
        </mxCell>
        <mxCell id="Fn9HW5KK04FN8IUDYLo9-102" value="PollyTTSAdapter" style="swimlane;fontStyle=1;align=center;verticalAlign=top;childLayout=stackLayout;horizontal=1;startSize=26;horizontalStack=0;resizeParent=1;resizeParentMax=0;resizeLast=0;collapsible=1;marginBottom=0;whiteSpace=wrap;html=1;" parent="1" vertex="1">
          <mxGeometry x="117" y="2296" width="136" height="52" as="geometry" />
        </mxCell>
        <mxCell id="Fn9HW5KK04FN8IUDYLo9-103" value="" style="text;strokeColor=#82b366;fillColor=#d5e8d4;align=left;verticalAlign=top;spacingLeft=4;spacingRight=4;overflow=hidden;rotatable=0;points=[[0,0.5],[1,0.5]];portConstraint=eastwest;whiteSpace=wrap;html=1;" parent="Fn9HW5KK04FN8IUDYLo9-102" vertex="1">
          <mxGeometry y="26" width="136" height="26" as="geometry" />
        </mxCell>
        <mxCell id="Fn9HW5KK04FN8IUDYLo9-104" value="" style="endArrow=block;dashed=1;endFill=0;endSize=12;html=1;rounded=0;" parent="1" source="Fn9HW5KK04FN8IUDYLo9-102" target="Fn9HW5KK04FN8IUDYLo9-94" edge="1">
          <mxGeometry width="160" relative="1" as="geometry">
            <mxPoint x="80" y="2160" as="sourcePoint" />
            <mxPoint x="240" y="2160" as="targetPoint" />
          </mxGeometry>
        </mxCell>
        <mxCell id="Fn9HW5KK04FN8IUDYLo9-105" value="" style="endArrow=diamondThin;endFill=0;endSize=24;html=1;rounded=0;" parent="1" source="Fn9HW5KK04FN8IUDYLo9-86" target="Fn9HW5KK04FN8IUDYLo9-102" edge="1">
          <mxGeometry width="160" relative="1" as="geometry">
            <mxPoint x="125" y="2640" as="sourcePoint" />
            <mxPoint x="285" y="2640" as="targetPoint" />
          </mxGeometry>
        </mxCell>
        <mxCell id="Fn9HW5KK04FN8IUDYLo9-106" value="ya_cloud_adapter" style="shape=module;align=left;spacingLeft=20;align=center;verticalAlign=top;whiteSpace=wrap;html=1;" parent="1" vertex="1">
          <mxGeometry x="302" y="2250" width="226" height="116" as="geometry" />
        </mxCell>
        <mxCell id="Fn9HW5KK04FN8IUDYLo9-107" value="YaCloudTTSAdapter" style="swimlane;fontStyle=1;align=center;verticalAlign=top;childLayout=stackLayout;horizontal=1;startSize=26;horizontalStack=0;resizeParent=1;resizeParentMax=0;resizeLast=0;collapsible=1;marginBottom=0;whiteSpace=wrap;html=1;" parent="1" vertex="1">
          <mxGeometry x="338" y="2296" width="164" height="52" as="geometry" />
        </mxCell>
        <mxCell id="Fn9HW5KK04FN8IUDYLo9-108" value="" style="text;strokeColor=#9673a6;fillColor=#e1d5e7;align=left;verticalAlign=top;spacingLeft=4;spacingRight=4;overflow=hidden;rotatable=0;points=[[0,0.5],[1,0.5]];portConstraint=eastwest;whiteSpace=wrap;html=1;" parent="Fn9HW5KK04FN8IUDYLo9-107" vertex="1">
          <mxGeometry y="26" width="164" height="26" as="geometry" />
        </mxCell>
        <mxCell id="Fn9HW5KK04FN8IUDYLo9-109" value="" style="endArrow=block;dashed=1;endFill=0;endSize=12;html=1;rounded=0;" parent="1" source="Fn9HW5KK04FN8IUDYLo9-107" target="Fn9HW5KK04FN8IUDYLo9-94" edge="1">
          <mxGeometry width="160" relative="1" as="geometry">
            <mxPoint x="80" y="2160" as="sourcePoint" />
            <mxPoint x="240" y="2160" as="targetPoint" />
          </mxGeometry>
        </mxCell>
        <mxCell id="Fn9HW5KK04FN8IUDYLo9-110" value="" style="endArrow=diamondThin;endFill=0;endSize=24;html=1;rounded=0;" parent="1" source="Fn9HW5KK04FN8IUDYLo9-89" target="Fn9HW5KK04FN8IUDYLo9-107" edge="1">
          <mxGeometry width="160" relative="1" as="geometry">
            <mxPoint x="212" y="2470" as="sourcePoint" />
            <mxPoint x="318" y="2352" as="targetPoint" />
          </mxGeometry>
        </mxCell>
        <mxCell id="Fn9HW5KK04FN8IUDYLo9-111" value="future_tts_adapter" style="shape=module;align=left;spacingLeft=20;align=center;verticalAlign=top;whiteSpace=wrap;html=1;" parent="1" vertex="1">
          <mxGeometry x="580" y="2250" width="240" height="116" as="geometry" />
        </mxCell>
        <mxCell id="Fn9HW5KK04FN8IUDYLo9-112" value="???TTSAdapter" style="swimlane;fontStyle=1;align=center;verticalAlign=top;childLayout=stackLayout;horizontal=1;startSize=26;horizontalStack=0;resizeParent=1;resizeParentMax=0;resizeLast=0;collapsible=1;marginBottom=0;whiteSpace=wrap;html=1;fillColor=#dae8fc;strokeColor=#6c8ebf;" parent="1" vertex="1">
          <mxGeometry x="624" y="2296" width="160" height="52" as="geometry" />
        </mxCell>
        <mxCell id="Fn9HW5KK04FN8IUDYLo9-113" value="" style="text;strokeColor=#d6b656;fillColor=#fff2cc;align=left;verticalAlign=top;spacingLeft=4;spacingRight=4;overflow=hidden;rotatable=0;points=[[0,0.5],[1,0.5]];portConstraint=eastwest;whiteSpace=wrap;html=1;" parent="Fn9HW5KK04FN8IUDYLo9-112" vertex="1">
          <mxGeometry y="26" width="160" height="26" as="geometry" />
        </mxCell>
        <mxCell id="Fn9HW5KK04FN8IUDYLo9-114" value="" style="endArrow=block;dashed=1;endFill=0;endSize=12;html=1;rounded=0;" parent="1" source="Fn9HW5KK04FN8IUDYLo9-112" target="Fn9HW5KK04FN8IUDYLo9-94" edge="1">
          <mxGeometry width="160" relative="1" as="geometry">
            <mxPoint x="419" y="2336" as="sourcePoint" />
            <mxPoint x="381" y="2252" as="targetPoint" />
          </mxGeometry>
        </mxCell>
        <mxCell id="Fn9HW5KK04FN8IUDYLo9-115" value="" style="endArrow=diamondThin;endFill=0;endSize=24;html=1;rounded=0;" parent="1" source="Fn9HW5KK04FN8IUDYLo9-92" target="Fn9HW5KK04FN8IUDYLo9-112" edge="1">
          <mxGeometry width="160" relative="1" as="geometry">
            <mxPoint x="425" y="2460" as="sourcePoint" />
            <mxPoint x="429" y="2358" as="targetPoint" />
          </mxGeometry>
        </mxCell>
        <mxCell id="Fn9HW5KK04FN8IUDYLo9-116" value="ITTSServiceProvider" style="swimlane;fontStyle=3;align=center;verticalAlign=top;childLayout=stackLayout;horizontal=1;startSize=26;horizontalStack=0;resizeParent=1;resizeParentMax=0;resizeLast=0;collapsible=1;marginBottom=0;whiteSpace=wrap;html=1;fillColor=#ffcccc;strokeColor=#36393d;" parent="1" vertex="1">
          <mxGeometry x="435" y="1930" width="325" height="78" as="geometry" />
        </mxCell>
        <mxCell id="Fn9HW5KK04FN8IUDYLo9-117" value="+GetVoices():[Voice]" style="text;strokeColor=#36393d;fillColor=none;align=left;verticalAlign=top;spacingLeft=4;spacingRight=4;overflow=hidden;rotatable=0;points=[[0,0.5],[1,0.5]];portConstraint=eastwest;whiteSpace=wrap;html=1;fontStyle=2" parent="Fn9HW5KK04FN8IUDYLo9-116" vertex="1">
          <mxGeometry y="26" width="325" height="26" as="geometry" />
        </mxCell>
        <mxCell id="Fn9HW5KK04FN8IUDYLo9-118" value="+GetServiceForVoice(id, langId):ITTSService" style="text;strokeColor=#36393d;fillColor=none;align=left;verticalAlign=top;spacingLeft=4;spacingRight=4;overflow=hidden;rotatable=0;points=[[0,0.5],[1,0.5]];portConstraint=eastwest;whiteSpace=wrap;html=1;fontStyle=2" parent="Fn9HW5KK04FN8IUDYLo9-116" vertex="1">
          <mxGeometry y="52" width="325" height="26" as="geometry" />
        </mxCell>
        <mxCell id="Fn9HW5KK04FN8IUDYLo9-119" value="TTSServiceProvider" style="swimlane;fontStyle=1;align=center;verticalAlign=top;childLayout=stackLayout;horizontal=1;startSize=26;horizontalStack=0;resizeParent=1;resizeParentMax=0;resizeLast=0;collapsible=1;marginBottom=0;whiteSpace=wrap;html=1;fillColor=#ffcccc;strokeColor=#36393d;" parent="1" vertex="1">
          <mxGeometry x="332" y="2080" width="160" height="52" as="geometry" />
        </mxCell>
        <mxCell id="Fn9HW5KK04FN8IUDYLo9-123" value="Voice" style="swimlane;fontStyle=1;align=center;verticalAlign=top;childLayout=stackLayout;horizontal=1;startSize=26;horizontalStack=0;resizeParent=1;resizeParentMax=0;resizeLast=0;collapsible=1;marginBottom=0;whiteSpace=wrap;html=1;" parent="1" vertex="1">
          <mxGeometry x="660" y="2036" width="160" height="104" as="geometry" />
        </mxCell>
        <mxCell id="Fn9HW5KK04FN8IUDYLo9-124" value="+id:string" style="text;strokeColor=none;fillColor=none;align=left;verticalAlign=top;spacingLeft=4;spacingRight=4;overflow=hidden;rotatable=0;points=[[0,0.5],[1,0.5]];portConstraint=eastwest;whiteSpace=wrap;html=1;" parent="Fn9HW5KK04FN8IUDYLo9-123" vertex="1">
          <mxGeometry y="26" width="160" height="26" as="geometry" />
        </mxCell>
        <mxCell id="Fn9HW5KK04FN8IUDYLo9-126" value="+name:string" style="text;strokeColor=none;fillColor=none;align=left;verticalAlign=top;spacingLeft=4;spacingRight=4;overflow=hidden;rotatable=0;points=[[0,0.5],[1,0.5]];portConstraint=eastwest;whiteSpace=wrap;html=1;" parent="Fn9HW5KK04FN8IUDYLo9-123" vertex="1">
          <mxGeometry y="52" width="160" height="26" as="geometry" />
        </mxCell>
        <mxCell id="Fn9HW5KK04FN8IUDYLo9-127" value="+languages:[string]" style="text;strokeColor=none;fillColor=none;align=left;verticalAlign=top;spacingLeft=4;spacingRight=4;overflow=hidden;rotatable=0;points=[[0,0.5],[1,0.5]];portConstraint=eastwest;whiteSpace=wrap;html=1;" parent="Fn9HW5KK04FN8IUDYLo9-123" vertex="1">
          <mxGeometry y="78" width="160" height="26" as="geometry" />
        </mxCell>
        <mxCell id="Fn9HW5KK04FN8IUDYLo9-128" value="" style="endArrow=block;dashed=1;endFill=0;endSize=12;html=1;rounded=0;" parent="1" source="Fn9HW5KK04FN8IUDYLo9-119" target="Fn9HW5KK04FN8IUDYLo9-116" edge="1">
          <mxGeometry width="160" relative="1" as="geometry">
            <mxPoint x="650" y="2230" as="sourcePoint" />
            <mxPoint x="810" y="2230" as="targetPoint" />
          </mxGeometry>
        </mxCell>
        <mxCell id="Fn9HW5KK04FN8IUDYLo9-129" value="" style="endArrow=open;endSize=12;dashed=1;html=1;rounded=0;" parent="1" source="Fn9HW5KK04FN8IUDYLo9-119" target="Fn9HW5KK04FN8IUDYLo9-112" edge="1">
          <mxGeometry width="160" relative="1" as="geometry">
            <mxPoint x="900" y="2320" as="sourcePoint" />
            <mxPoint x="1060" y="2320" as="targetPoint" />
          </mxGeometry>
        </mxCell>
        <mxCell id="Fn9HW5KK04FN8IUDYLo9-130" value="" style="endArrow=open;endSize=12;dashed=1;html=1;rounded=0;" parent="1" source="Fn9HW5KK04FN8IUDYLo9-119" target="Fn9HW5KK04FN8IUDYLo9-107" edge="1">
          <mxGeometry width="160" relative="1" as="geometry">
            <mxPoint x="900" y="2320" as="sourcePoint" />
            <mxPoint x="1060" y="2320" as="targetPoint" />
          </mxGeometry>
        </mxCell>
        <mxCell id="Fn9HW5KK04FN8IUDYLo9-131" value="" style="endArrow=open;endSize=12;dashed=1;html=1;rounded=0;" parent="1" source="Fn9HW5KK04FN8IUDYLo9-119" target="Fn9HW5KK04FN8IUDYLo9-102" edge="1">
          <mxGeometry width="160" relative="1" as="geometry">
            <mxPoint x="900" y="2320" as="sourcePoint" />
            <mxPoint x="1060" y="2320" as="targetPoint" />
          </mxGeometry>
        </mxCell>
        <mxCell id="Fn9HW5KK04FN8IUDYLo9-132" value="" style="endArrow=open;endSize=12;dashed=1;html=1;rounded=0;" parent="1" source="Fn9HW5KK04FN8IUDYLo9-119" target="Fn9HW5KK04FN8IUDYLo9-97" edge="1">
          <mxGeometry width="160" relative="1" as="geometry">
            <mxPoint x="900" y="2320" as="sourcePoint" />
            <mxPoint x="1060" y="2320" as="targetPoint" />
          </mxGeometry>
        </mxCell>
        <mxCell id="Fn9HW5KK04FN8IUDYLo9-133" value="" style="endArrow=open;endSize=12;dashed=1;html=1;rounded=0;" parent="1" source="Fn9HW5KK04FN8IUDYLo9-81" target="Fn9HW5KK04FN8IUDYLo9-116" edge="1">
          <mxGeometry width="160" relative="1" as="geometry">
            <mxPoint x="700" y="2270" as="sourcePoint" />
            <mxPoint x="860" y="2270" as="targetPoint" />
          </mxGeometry>
        </mxCell>
        <mxCell id="Fn9HW5KK04FN8IUDYLo9-134" value="" style="endArrow=open;endSize=12;dashed=1;html=1;rounded=0;" parent="1" source="Fn9HW5KK04FN8IUDYLo9-81" target="Fn9HW5KK04FN8IUDYLo9-123" edge="1">
          <mxGeometry width="160" relative="1" as="geometry">
            <mxPoint x="700" y="2270" as="sourcePoint" />
            <mxPoint x="860" y="2270" as="targetPoint" />
          </mxGeometry>
        </mxCell>
        <mxCell id="Fn9HW5KK04FN8IUDYLo9-135" value="" style="endArrow=open;endSize=12;dashed=1;html=1;rounded=0;" parent="1" source="Fn9HW5KK04FN8IUDYLo9-116" target="Fn9HW5KK04FN8IUDYLo9-123" edge="1">
          <mxGeometry width="160" relative="1" as="geometry">
            <mxPoint x="700" y="2270" as="sourcePoint" />
            <mxPoint x="860" y="2270" as="targetPoint" />
          </mxGeometry>
        </mxCell>
        <mxCell id="Fn9HW5KK04FN8IUDYLo9-136" value="" style="endArrow=open;endSize=12;dashed=1;html=1;rounded=0;" parent="1" source="Fn9HW5KK04FN8IUDYLo9-119" target="Fn9HW5KK04FN8IUDYLo9-123" edge="1">
          <mxGeometry width="160" relative="1" as="geometry">
            <mxPoint x="700" y="2270" as="sourcePoint" />
            <mxPoint x="860" y="2270" as="targetPoint" />
          </mxGeometry>
        </mxCell>
        <mxCell id="Fn9HW5KK04FN8IUDYLo9-137" value="" style="endArrow=open;endSize=12;dashed=1;html=1;rounded=0;edgeStyle=orthogonalEdgeStyle;" parent="1" source="Fn9HW5KK04FN8IUDYLo9-119" target="Fn9HW5KK04FN8IUDYLo9-92" edge="1">
          <mxGeometry width="160" relative="1" as="geometry">
            <mxPoint x="900" y="2320" as="sourcePoint" />
            <mxPoint x="1060" y="2320" as="targetPoint" />
            <Array as="points">
              <mxPoint x="520" y="2148" />
              <mxPoint x="520" y="2150" />
              <mxPoint x="850" y="2150" />
              <mxPoint x="850" y="2480" />
            </Array>
          </mxGeometry>
        </mxCell>
        <mxCell id="Fn9HW5KK04FN8IUDYLo9-138" value="" style="endArrow=open;endSize=12;dashed=1;html=1;rounded=0;edgeStyle=orthogonalEdgeStyle;" parent="1" source="Fn9HW5KK04FN8IUDYLo9-119" target="Fn9HW5KK04FN8IUDYLo9-89" edge="1">
          <mxGeometry width="160" relative="1" as="geometry">
            <mxPoint x="900" y="2320" as="sourcePoint" />
            <mxPoint x="1060" y="2320" as="targetPoint" />
            <Array as="points">
              <mxPoint x="440" y="2170" />
              <mxPoint x="560" y="2170" />
              <mxPoint x="560" y="2476" />
            </Array>
          </mxGeometry>
        </mxCell>
        <mxCell id="Fn9HW5KK04FN8IUDYLo9-139" value="" style="endArrow=open;endSize=12;dashed=1;html=1;rounded=0;edgeStyle=orthogonalEdgeStyle;" parent="1" source="Fn9HW5KK04FN8IUDYLo9-119" target="Fn9HW5KK04FN8IUDYLo9-86" edge="1">
          <mxGeometry width="160" relative="1" as="geometry">
            <mxPoint x="900" y="2320" as="sourcePoint" />
            <mxPoint x="1060" y="2320" as="targetPoint" />
            <Array as="points">
              <mxPoint x="400" y="2180" />
              <mxPoint x="50" y="2180" />
              <mxPoint x="50" y="2480" />
            </Array>
          </mxGeometry>
        </mxCell>
        <mxCell id="Fn9HW5KK04FN8IUDYLo9-140" value="" style="endArrow=open;endSize=12;dashed=1;html=1;rounded=0;edgeStyle=orthogonalEdgeStyle;" parent="1" source="Fn9HW5KK04FN8IUDYLo9-119" target="Fn9HW5KK04FN8IUDYLo9-83" edge="1">
          <mxGeometry width="160" relative="1" as="geometry">
            <mxPoint x="900" y="2320" as="sourcePoint" />
            <mxPoint x="1060" y="2320" as="targetPoint" />
            <Array as="points">
              <mxPoint x="360" y="2150" />
              <mxPoint x="-200" y="2150" />
              <mxPoint x="-200" y="2480" />
            </Array>
          </mxGeometry>
        </mxCell>
        <mxCell id="jmuu9kJnYKAgFxGBDwiv-1" value="Client" style="swimlane;fontStyle=1;align=center;verticalAlign=top;childLayout=stackLayout;horizontal=1;startSize=26;horizontalStack=0;resizeParent=1;resizeParentMax=0;resizeLast=0;collapsible=1;marginBottom=0;whiteSpace=wrap;html=1;" parent="1" vertex="1">
          <mxGeometry x="-680" y="87" width="160" height="52" as="geometry" />
        </mxCell>
        <mxCell id="jmuu9kJnYKAgFxGBDwiv-6" value="&lt;div&gt;&lt;span style=&quot;font-weight: normal;&quot;&gt;&lt;i&gt;&amp;lt;&amp;lt;interface&amp;gt;&amp;gt;&lt;/i&gt;&lt;/span&gt;&lt;/div&gt;&lt;i&gt;Target&lt;/i&gt;" style="swimlane;fontStyle=1;align=center;verticalAlign=top;childLayout=stackLayout;horizontal=1;startSize=40;horizontalStack=0;resizeParent=1;resizeParentMax=0;resizeLast=0;collapsible=1;marginBottom=0;whiteSpace=wrap;html=1;" parent="1" vertex="1">
          <mxGeometry x="-440" y="80" width="160" height="66" as="geometry" />
        </mxCell>
        <mxCell id="jmuu9kJnYKAgFxGBDwiv-8" value="+Request()" style="text;strokeColor=none;fillColor=none;align=left;verticalAlign=top;spacingLeft=4;spacingRight=4;overflow=hidden;rotatable=0;points=[[0,0.5],[1,0.5]];portConstraint=eastwest;whiteSpace=wrap;html=1;fontStyle=2" parent="jmuu9kJnYKAgFxGBDwiv-6" vertex="1">
          <mxGeometry y="40" width="160" height="26" as="geometry" />
        </mxCell>
        <mxCell id="jmuu9kJnYKAgFxGBDwiv-11" value="Use" style="endArrow=open;endSize=12;dashed=1;html=1;rounded=0;" parent="1" source="jmuu9kJnYKAgFxGBDwiv-1" target="jmuu9kJnYKAgFxGBDwiv-6" edge="1">
          <mxGeometry width="160" relative="1" as="geometry">
            <mxPoint x="-660" y="250" as="sourcePoint" />
            <mxPoint x="-500" y="250" as="targetPoint" />
          </mxGeometry>
        </mxCell>
        <mxCell id="jmuu9kJnYKAgFxGBDwiv-12" value="Adapter" style="swimlane;fontStyle=1;align=center;verticalAlign=top;childLayout=stackLayout;horizontal=1;startSize=26;horizontalStack=0;resizeParent=1;resizeParentMax=0;resizeLast=0;collapsible=1;marginBottom=0;whiteSpace=wrap;html=1;" parent="1" vertex="1">
          <mxGeometry x="-450" y="237" width="180" height="112" as="geometry" />
        </mxCell>
        <mxCell id="jmuu9kJnYKAgFxGBDwiv-42" value="+Adapter(adaptee:Adaptee&amp;amp;)" style="text;strokeColor=none;fillColor=none;align=left;verticalAlign=top;spacingLeft=4;spacingRight=4;overflow=hidden;rotatable=0;points=[[0,0.5],[1,0.5]];portConstraint=eastwest;whiteSpace=wrap;html=1;" parent="jmuu9kJnYKAgFxGBDwiv-12" vertex="1">
          <mxGeometry y="26" width="180" height="26" as="geometry" />
        </mxCell>
        <mxCell id="jmuu9kJnYKAgFxGBDwiv-14" value="+Request()" style="text;strokeColor=none;fillColor=none;align=left;verticalAlign=top;spacingLeft=4;spacingRight=4;overflow=hidden;rotatable=0;points=[[0,0.5],[1,0.5]];portConstraint=eastwest;whiteSpace=wrap;html=1;" parent="jmuu9kJnYKAgFxGBDwiv-12" vertex="1">
          <mxGeometry y="52" width="180" height="26" as="geometry" />
        </mxCell>
        <mxCell id="jmuu9kJnYKAgFxGBDwiv-20" value="" style="line;strokeWidth=1;fillColor=none;align=left;verticalAlign=middle;spacingTop=-1;spacingLeft=3;spacingRight=3;rotatable=0;labelPosition=right;points=[];portConstraint=eastwest;strokeColor=inherit;" parent="jmuu9kJnYKAgFxGBDwiv-12" vertex="1">
          <mxGeometry y="78" width="180" height="8" as="geometry" />
        </mxCell>
        <mxCell id="jmuu9kJnYKAgFxGBDwiv-19" value="-m_adaptee:Adaptee&amp;amp;" style="text;strokeColor=none;fillColor=none;align=left;verticalAlign=top;spacingLeft=4;spacingRight=4;overflow=hidden;rotatable=0;points=[[0,0.5],[1,0.5]];portConstraint=eastwest;whiteSpace=wrap;html=1;" parent="jmuu9kJnYKAgFxGBDwiv-12" vertex="1">
          <mxGeometry y="86" width="180" height="26" as="geometry" />
        </mxCell>
        <mxCell id="jmuu9kJnYKAgFxGBDwiv-13" value="" style="endArrow=block;dashed=1;endFill=0;endSize=12;html=1;rounded=0;" parent="1" source="jmuu9kJnYKAgFxGBDwiv-12" target="jmuu9kJnYKAgFxGBDwiv-6" edge="1">
          <mxGeometry width="160" relative="1" as="geometry">
            <mxPoint x="-430" y="190" as="sourcePoint" />
            <mxPoint x="-270" y="190" as="targetPoint" />
          </mxGeometry>
        </mxCell>
        <mxCell id="jmuu9kJnYKAgFxGBDwiv-15" value="Adaptee" style="swimlane;fontStyle=1;align=center;verticalAlign=top;childLayout=stackLayout;horizontal=1;startSize=26;horizontalStack=0;resizeParent=1;resizeParentMax=0;resizeLast=0;collapsible=1;marginBottom=0;whiteSpace=wrap;html=1;" parent="1" vertex="1">
          <mxGeometry x="-200" y="267" width="160" height="52" as="geometry" />
        </mxCell>
        <mxCell id="jmuu9kJnYKAgFxGBDwiv-16" value="+SpecificRequest()" style="text;strokeColor=none;fillColor=none;align=left;verticalAlign=top;spacingLeft=4;spacingRight=4;overflow=hidden;rotatable=0;points=[[0,0.5],[1,0.5]];portConstraint=eastwest;whiteSpace=wrap;html=1;" parent="jmuu9kJnYKAgFxGBDwiv-15" vertex="1">
          <mxGeometry y="26" width="160" height="26" as="geometry" />
        </mxCell>
        <mxCell id="jmuu9kJnYKAgFxGBDwiv-17" value="" style="endArrow=diamondThin;endFill=0;endSize=24;html=1;rounded=0;" parent="1" source="jmuu9kJnYKAgFxGBDwiv-15" target="jmuu9kJnYKAgFxGBDwiv-12" edge="1">
          <mxGeometry width="160" relative="1" as="geometry">
            <mxPoint x="-410" y="340" as="sourcePoint" />
            <mxPoint x="-250" y="340" as="targetPoint" />
          </mxGeometry>
        </mxCell>
        <mxCell id="jmuu9kJnYKAgFxGBDwiv-18" value="&lt;div&gt;void Request() {&lt;/div&gt;&amp;nbsp; m_adaptee.SpecificRequest();&lt;div&gt;}&lt;/div&gt;" style="shape=note;whiteSpace=wrap;html=1;backgroundOutline=1;darkOpacity=0.05;fillColor=#ffff88;strokeColor=#36393d;fontFamily=Consolas;size=15;align=left;spacingLeft=2;" parent="1" vertex="1">
          <mxGeometry x="-710" y="299" width="210" height="50" as="geometry" />
        </mxCell>
        <mxCell id="jmuu9kJnYKAgFxGBDwiv-21" style="edgeStyle=orthogonalEdgeStyle;rounded=0;orthogonalLoop=1;jettySize=auto;html=1;" parent="1" source="jmuu9kJnYKAgFxGBDwiv-14" target="jmuu9kJnYKAgFxGBDwiv-18" edge="1">
          <mxGeometry relative="1" as="geometry" />
        </mxCell>
        <mxCell id="jmuu9kJnYKAgFxGBDwiv-22" value="Client" style="swimlane;fontStyle=1;align=center;verticalAlign=top;childLayout=stackLayout;horizontal=1;startSize=26;horizontalStack=0;resizeParent=1;resizeParentMax=0;resizeLast=0;collapsible=1;marginBottom=0;whiteSpace=wrap;html=1;" parent="1" vertex="1">
          <mxGeometry x="-680" y="397" width="160" height="52" as="geometry" />
        </mxCell>
        <mxCell id="jmuu9kJnYKAgFxGBDwiv-23" value="&lt;div&gt;&lt;span style=&quot;font-weight: normal;&quot;&gt;&lt;i&gt;&amp;lt;&amp;lt;interface&amp;gt;&amp;gt;&lt;/i&gt;&lt;/span&gt;&lt;/div&gt;&lt;i&gt;Target&lt;/i&gt;" style="swimlane;fontStyle=1;align=center;verticalAlign=top;childLayout=stackLayout;horizontal=1;startSize=40;horizontalStack=0;resizeParent=1;resizeParentMax=0;resizeLast=0;collapsible=1;marginBottom=0;whiteSpace=wrap;html=1;" parent="1" vertex="1">
          <mxGeometry x="-440" y="390" width="160" height="66" as="geometry" />
        </mxCell>
        <mxCell id="jmuu9kJnYKAgFxGBDwiv-24" value="+Request()" style="text;strokeColor=none;fillColor=none;align=left;verticalAlign=top;spacingLeft=4;spacingRight=4;overflow=hidden;rotatable=0;points=[[0,0.5],[1,0.5]];portConstraint=eastwest;whiteSpace=wrap;html=1;fontStyle=2" parent="jmuu9kJnYKAgFxGBDwiv-23" vertex="1">
          <mxGeometry y="40" width="160" height="26" as="geometry" />
        </mxCell>
        <mxCell id="jmuu9kJnYKAgFxGBDwiv-25" value="Use" style="endArrow=open;endSize=12;dashed=1;html=1;rounded=0;" parent="1" source="jmuu9kJnYKAgFxGBDwiv-22" target="jmuu9kJnYKAgFxGBDwiv-23" edge="1">
          <mxGeometry width="160" relative="1" as="geometry">
            <mxPoint x="-660" y="560" as="sourcePoint" />
            <mxPoint x="-500" y="560" as="targetPoint" />
          </mxGeometry>
        </mxCell>
        <mxCell id="jmuu9kJnYKAgFxGBDwiv-26" value="Adapter" style="swimlane;fontStyle=1;align=center;verticalAlign=top;childLayout=stackLayout;horizontal=1;startSize=26;horizontalStack=0;resizeParent=1;resizeParentMax=0;resizeLast=0;collapsible=1;marginBottom=0;whiteSpace=wrap;html=1;" parent="1" vertex="1">
          <mxGeometry x="-440" y="547" width="160" height="86" as="geometry" />
        </mxCell>
        <mxCell id="jmuu9kJnYKAgFxGBDwiv-27" value="+Request()" style="text;strokeColor=none;fillColor=none;align=left;verticalAlign=top;spacingLeft=4;spacingRight=4;overflow=hidden;rotatable=0;points=[[0,0.5],[1,0.5]];portConstraint=eastwest;whiteSpace=wrap;html=1;" parent="jmuu9kJnYKAgFxGBDwiv-26" vertex="1">
          <mxGeometry y="26" width="160" height="26" as="geometry" />
        </mxCell>
        <mxCell id="jmuu9kJnYKAgFxGBDwiv-28" value="" style="line;strokeWidth=1;fillColor=none;align=left;verticalAlign=middle;spacingTop=-1;spacingLeft=3;spacingRight=3;rotatable=0;labelPosition=right;points=[];portConstraint=eastwest;strokeColor=inherit;" parent="jmuu9kJnYKAgFxGBDwiv-26" vertex="1">
          <mxGeometry y="52" width="160" height="8" as="geometry" />
        </mxCell>
        <mxCell id="jmuu9kJnYKAgFxGBDwiv-29" value="-m_adaptee:Adaptee&amp;amp;" style="text;strokeColor=none;fillColor=none;align=left;verticalAlign=top;spacingLeft=4;spacingRight=4;overflow=hidden;rotatable=0;points=[[0,0.5],[1,0.5]];portConstraint=eastwest;whiteSpace=wrap;html=1;" parent="jmuu9kJnYKAgFxGBDwiv-26" vertex="1">
          <mxGeometry y="60" width="160" height="26" as="geometry" />
        </mxCell>
        <mxCell id="jmuu9kJnYKAgFxGBDwiv-30" value="" style="endArrow=block;dashed=1;endFill=0;endSize=12;html=1;rounded=0;" parent="1" source="jmuu9kJnYKAgFxGBDwiv-26" target="jmuu9kJnYKAgFxGBDwiv-23" edge="1">
          <mxGeometry width="160" relative="1" as="geometry">
            <mxPoint x="-430" y="500" as="sourcePoint" />
            <mxPoint x="-270" y="500" as="targetPoint" />
          </mxGeometry>
        </mxCell>
        <mxCell id="jmuu9kJnYKAgFxGBDwiv-31" value="Adaptee" style="swimlane;fontStyle=1;align=center;verticalAlign=top;childLayout=stackLayout;horizontal=1;startSize=26;horizontalStack=0;resizeParent=1;resizeParentMax=0;resizeLast=0;collapsible=1;marginBottom=0;whiteSpace=wrap;html=1;" parent="1" vertex="1">
          <mxGeometry x="-200" y="564" width="160" height="52" as="geometry" />
        </mxCell>
        <mxCell id="jmuu9kJnYKAgFxGBDwiv-32" value="+SpecificRequest()" style="text;strokeColor=none;fillColor=none;align=left;verticalAlign=top;spacingLeft=4;spacingRight=4;overflow=hidden;rotatable=0;points=[[0,0.5],[1,0.5]];portConstraint=eastwest;whiteSpace=wrap;html=1;" parent="jmuu9kJnYKAgFxGBDwiv-31" vertex="1">
          <mxGeometry y="26" width="160" height="26" as="geometry" />
        </mxCell>
        <mxCell id="jmuu9kJnYKAgFxGBDwiv-33" value="" style="endArrow=diamondThin;endFill=0;endSize=24;html=1;rounded=0;" parent="1" source="jmuu9kJnYKAgFxGBDwiv-31" target="jmuu9kJnYKAgFxGBDwiv-26" edge="1">
          <mxGeometry width="160" relative="1" as="geometry">
            <mxPoint x="-410" y="650" as="sourcePoint" />
            <mxPoint x="-250" y="650" as="targetPoint" />
          </mxGeometry>
        </mxCell>
        <mxCell id="jmuu9kJnYKAgFxGBDwiv-36" value="ConcreteAdaptee1" style="swimlane;fontStyle=1;align=center;verticalAlign=top;childLayout=stackLayout;horizontal=1;startSize=26;horizontalStack=0;resizeParent=1;resizeParentMax=0;resizeLast=0;collapsible=1;marginBottom=0;whiteSpace=wrap;html=1;" parent="1" vertex="1">
          <mxGeometry x="-280" y="680" width="160" height="52" as="geometry" />
        </mxCell>
        <mxCell id="jmuu9kJnYKAgFxGBDwiv-37" value="+SpecificRequest()" style="text;strokeColor=none;fillColor=none;align=left;verticalAlign=top;spacingLeft=4;spacingRight=4;overflow=hidden;rotatable=0;points=[[0,0.5],[1,0.5]];portConstraint=eastwest;whiteSpace=wrap;html=1;" parent="jmuu9kJnYKAgFxGBDwiv-36" vertex="1">
          <mxGeometry y="26" width="160" height="26" as="geometry" />
        </mxCell>
        <mxCell id="jmuu9kJnYKAgFxGBDwiv-38" value="" style="endArrow=block;endSize=16;endFill=0;html=1;rounded=0;" parent="1" source="jmuu9kJnYKAgFxGBDwiv-36" target="jmuu9kJnYKAgFxGBDwiv-31" edge="1">
          <mxGeometry width="160" relative="1" as="geometry">
            <mxPoint x="-220" y="650" as="sourcePoint" />
            <mxPoint x="-60" y="650" as="targetPoint" />
          </mxGeometry>
        </mxCell>
        <mxCell id="jmuu9kJnYKAgFxGBDwiv-39" value="ConcreteAdaptee2" style="swimlane;fontStyle=1;align=center;verticalAlign=top;childLayout=stackLayout;horizontal=1;startSize=26;horizontalStack=0;resizeParent=1;resizeParentMax=0;resizeLast=0;collapsible=1;marginBottom=0;whiteSpace=wrap;html=1;" parent="1" vertex="1">
          <mxGeometry x="-80" y="680" width="160" height="52" as="geometry" />
        </mxCell>
        <mxCell id="jmuu9kJnYKAgFxGBDwiv-40" value="+SpecificRequest()" style="text;strokeColor=none;fillColor=none;align=left;verticalAlign=top;spacingLeft=4;spacingRight=4;overflow=hidden;rotatable=0;points=[[0,0.5],[1,0.5]];portConstraint=eastwest;whiteSpace=wrap;html=1;" parent="jmuu9kJnYKAgFxGBDwiv-39" vertex="1">
          <mxGeometry y="26" width="160" height="26" as="geometry" />
        </mxCell>
        <mxCell id="jmuu9kJnYKAgFxGBDwiv-41" value="" style="endArrow=block;endSize=16;endFill=0;html=1;rounded=0;" parent="1" source="jmuu9kJnYKAgFxGBDwiv-39" target="jmuu9kJnYKAgFxGBDwiv-31" edge="1">
          <mxGeometry width="160" relative="1" as="geometry">
            <mxPoint x="-220" y="650" as="sourcePoint" />
            <mxPoint x="-60" y="650" as="targetPoint" />
          </mxGeometry>
        </mxCell>
        <mxCell id="jmuu9kJnYKAgFxGBDwiv-43" value="Adapter(Adaptee&amp;amp; adaptee)&lt;div&gt;&amp;nbsp; : m_adaptee{adaptee}&lt;br&gt;&lt;div&gt;{&lt;span style=&quot;background-color: initial;&quot;&gt;}&lt;/span&gt;&lt;/div&gt;&lt;/div&gt;" style="shape=note;whiteSpace=wrap;html=1;backgroundOutline=1;darkOpacity=0.05;fillColor=#ffff88;strokeColor=#36393d;fontFamily=Consolas;size=15;align=left;spacingLeft=2;" parent="1" vertex="1">
          <mxGeometry x="-710" y="197" width="210" height="53" as="geometry" />
        </mxCell>
        <mxCell id="jmuu9kJnYKAgFxGBDwiv-44" style="edgeStyle=orthogonalEdgeStyle;rounded=0;orthogonalLoop=1;jettySize=auto;html=1;" parent="1" source="jmuu9kJnYKAgFxGBDwiv-42" target="jmuu9kJnYKAgFxGBDwiv-43" edge="1">
          <mxGeometry relative="1" as="geometry" />
        </mxCell>
        <mxCell id="jmuu9kJnYKAgFxGBDwiv-45" value="Client" style="swimlane;fontStyle=1;align=center;verticalAlign=top;childLayout=stackLayout;horizontal=1;startSize=26;horizontalStack=0;resizeParent=1;resizeParentMax=0;resizeLast=0;collapsible=1;marginBottom=0;whiteSpace=wrap;html=1;" parent="1" vertex="1">
          <mxGeometry x="-1190" y="802" width="160" height="52" as="geometry" />
        </mxCell>
        <mxCell id="jmuu9kJnYKAgFxGBDwiv-46" value="&lt;div&gt;&lt;span style=&quot;font-weight: normal;&quot;&gt;&lt;i&gt;&amp;lt;&amp;lt;interface&amp;gt;&amp;gt;&lt;/i&gt;&lt;/span&gt;&lt;/div&gt;&lt;i&gt;Target&lt;/i&gt;" style="swimlane;fontStyle=1;align=center;verticalAlign=top;childLayout=stackLayout;horizontal=1;startSize=40;horizontalStack=0;resizeParent=1;resizeParentMax=0;resizeLast=0;collapsible=1;marginBottom=0;whiteSpace=wrap;html=1;" parent="1" vertex="1">
          <mxGeometry x="-950" y="795" width="160" height="66" as="geometry" />
        </mxCell>
        <mxCell id="jmuu9kJnYKAgFxGBDwiv-47" value="+Request()" style="text;strokeColor=none;fillColor=none;align=left;verticalAlign=top;spacingLeft=4;spacingRight=4;overflow=hidden;rotatable=0;points=[[0,0.5],[1,0.5]];portConstraint=eastwest;whiteSpace=wrap;html=1;fontStyle=2" parent="jmuu9kJnYKAgFxGBDwiv-46" vertex="1">
          <mxGeometry y="40" width="160" height="26" as="geometry" />
        </mxCell>
        <mxCell id="jmuu9kJnYKAgFxGBDwiv-48" value="Use" style="endArrow=open;endSize=12;dashed=1;html=1;rounded=0;" parent="1" source="jmuu9kJnYKAgFxGBDwiv-45" target="jmuu9kJnYKAgFxGBDwiv-46" edge="1">
          <mxGeometry width="160" relative="1" as="geometry">
            <mxPoint x="-1170" y="965" as="sourcePoint" />
            <mxPoint x="-1010" y="965" as="targetPoint" />
          </mxGeometry>
        </mxCell>
        <mxCell id="jmuu9kJnYKAgFxGBDwiv-49" value="Adapter" style="swimlane;fontStyle=1;align=center;verticalAlign=top;childLayout=stackLayout;horizontal=1;startSize=26;horizontalStack=0;resizeParent=1;resizeParentMax=0;resizeLast=0;collapsible=1;marginBottom=0;whiteSpace=wrap;html=1;" parent="1" vertex="1">
          <mxGeometry x="-840" y="940" width="160" height="52" as="geometry" />
        </mxCell>
        <mxCell id="jmuu9kJnYKAgFxGBDwiv-50" value="+Request()" style="text;strokeColor=none;fillColor=none;align=left;verticalAlign=top;spacingLeft=4;spacingRight=4;overflow=hidden;rotatable=0;points=[[0,0.5],[1,0.5]];portConstraint=eastwest;whiteSpace=wrap;html=1;" parent="jmuu9kJnYKAgFxGBDwiv-49" vertex="1">
          <mxGeometry y="26" width="160" height="26" as="geometry" />
        </mxCell>
        <mxCell id="jmuu9kJnYKAgFxGBDwiv-53" value="" style="endArrow=block;dashed=1;endFill=0;endSize=12;html=1;rounded=0;" parent="1" source="jmuu9kJnYKAgFxGBDwiv-49" target="jmuu9kJnYKAgFxGBDwiv-46" edge="1">
          <mxGeometry width="160" relative="1" as="geometry">
            <mxPoint x="-940" y="905" as="sourcePoint" />
            <mxPoint x="-780" y="905" as="targetPoint" />
          </mxGeometry>
        </mxCell>
        <mxCell id="jmuu9kJnYKAgFxGBDwiv-54" value="Adaptee" style="swimlane;fontStyle=1;align=center;verticalAlign=top;childLayout=stackLayout;horizontal=1;startSize=26;horizontalStack=0;resizeParent=1;resizeParentMax=0;resizeLast=0;collapsible=1;marginBottom=0;whiteSpace=wrap;html=1;" parent="1" vertex="1">
          <mxGeometry x="-720" y="800" width="160" height="52" as="geometry" />
        </mxCell>
        <mxCell id="jmuu9kJnYKAgFxGBDwiv-55" value="+SpecificRequest()" style="text;strokeColor=none;fillColor=none;align=left;verticalAlign=top;spacingLeft=4;spacingRight=4;overflow=hidden;rotatable=0;points=[[0,0.5],[1,0.5]];portConstraint=eastwest;whiteSpace=wrap;html=1;" parent="jmuu9kJnYKAgFxGBDwiv-54" vertex="1">
          <mxGeometry y="26" width="160" height="26" as="geometry" />
        </mxCell>
        <mxCell id="jmuu9kJnYKAgFxGBDwiv-63" value="" style="endArrow=block;endSize=16;endFill=0;html=1;rounded=0;" parent="1" source="jmuu9kJnYKAgFxGBDwiv-49" target="jmuu9kJnYKAgFxGBDwiv-54" edge="1">
          <mxGeometry width="160" relative="1" as="geometry">
            <mxPoint x="-679.9300000000001" y="950" as="sourcePoint" />
            <mxPoint x="-635.9300000000001" y="886" as="targetPoint" />
          </mxGeometry>
        </mxCell>
        <mxCell id="jmuu9kJnYKAgFxGBDwiv-64" value="&lt;div&gt;void Request() {&lt;/div&gt;&amp;nbsp; SpecificRequest();&lt;div&gt;}&lt;/div&gt;" style="shape=note;whiteSpace=wrap;html=1;backgroundOutline=1;darkOpacity=0.05;fillColor=#ffff88;strokeColor=#36393d;fontFamily=Consolas;size=15;align=left;spacingLeft=2;" parent="1" vertex="1">
          <mxGeometry x="-1130" y="954" width="210" height="50" as="geometry" />
        </mxCell>
        <mxCell id="jmuu9kJnYKAgFxGBDwiv-65" style="edgeStyle=orthogonalEdgeStyle;rounded=0;orthogonalLoop=1;jettySize=auto;html=1;" parent="1" source="jmuu9kJnYKAgFxGBDwiv-50" target="jmuu9kJnYKAgFxGBDwiv-64" edge="1">
          <mxGeometry relative="1" as="geometry" />
        </mxCell>
        <mxCell id="jmuu9kJnYKAgFxGBDwiv-66" value="Client" style="swimlane;fontStyle=1;align=center;verticalAlign=top;childLayout=stackLayout;horizontal=1;startSize=26;horizontalStack=0;resizeParent=1;resizeParentMax=0;resizeLast=0;collapsible=1;marginBottom=0;whiteSpace=wrap;html=1;" parent="1" vertex="1">
          <mxGeometry x="-1200" y="1080" width="160" height="52" as="geometry" />
        </mxCell>
        <mxCell id="jmuu9kJnYKAgFxGBDwiv-67" value="&lt;div&gt;&lt;span style=&quot;background-color: initial;&quot;&gt;Target&lt;/span&gt;&lt;br&gt;&lt;/div&gt;" style="swimlane;fontStyle=1;align=center;verticalAlign=top;childLayout=stackLayout;horizontal=1;startSize=27;horizontalStack=0;resizeParent=1;resizeParentMax=0;resizeLast=0;collapsible=1;marginBottom=0;whiteSpace=wrap;html=1;" parent="1" vertex="1">
          <mxGeometry x="-960" y="1080" width="160" height="53" as="geometry" />
        </mxCell>
        <mxCell id="jmuu9kJnYKAgFxGBDwiv-68" value="+Request()" style="text;strokeColor=none;fillColor=none;align=left;verticalAlign=top;spacingLeft=4;spacingRight=4;overflow=hidden;rotatable=0;points=[[0,0.5],[1,0.5]];portConstraint=eastwest;whiteSpace=wrap;html=1;fontStyle=0" parent="jmuu9kJnYKAgFxGBDwiv-67" vertex="1">
          <mxGeometry y="27" width="160" height="26" as="geometry" />
        </mxCell>
        <mxCell id="jmuu9kJnYKAgFxGBDwiv-69" value="Use" style="endArrow=open;endSize=12;dashed=1;html=1;rounded=0;" parent="1" source="jmuu9kJnYKAgFxGBDwiv-66" target="jmuu9kJnYKAgFxGBDwiv-67" edge="1">
          <mxGeometry width="160" relative="1" as="geometry">
            <mxPoint x="-1180" y="1243" as="sourcePoint" />
            <mxPoint x="-1020" y="1243" as="targetPoint" />
          </mxGeometry>
        </mxCell>
        <mxCell id="jmuu9kJnYKAgFxGBDwiv-70" value="Adapter" style="swimlane;fontStyle=1;align=center;verticalAlign=top;childLayout=stackLayout;horizontal=1;startSize=26;horizontalStack=0;resizeParent=1;resizeParentMax=0;resizeLast=0;collapsible=1;marginBottom=0;whiteSpace=wrap;html=1;" parent="1" vertex="1">
          <mxGeometry x="-850" y="1218" width="160" height="52" as="geometry" />
        </mxCell>
        <mxCell id="jmuu9kJnYKAgFxGBDwiv-71" value="+Request()" style="text;strokeColor=none;fillColor=none;align=left;verticalAlign=top;spacingLeft=4;spacingRight=4;overflow=hidden;rotatable=0;points=[[0,0.5],[1,0.5]];portConstraint=eastwest;whiteSpace=wrap;html=1;" parent="jmuu9kJnYKAgFxGBDwiv-70" vertex="1">
          <mxGeometry y="26" width="160" height="26" as="geometry" />
        </mxCell>
        <mxCell id="jmuu9kJnYKAgFxGBDwiv-72" value="" style="endArrow=block;dashed=1;endFill=0;endSize=12;html=1;rounded=0;" parent="1" source="jmuu9kJnYKAgFxGBDwiv-70" target="jmuu9kJnYKAgFxGBDwiv-67" edge="1">
          <mxGeometry width="160" relative="1" as="geometry">
            <mxPoint x="-950" y="1183" as="sourcePoint" />
            <mxPoint x="-790" y="1183" as="targetPoint" />
          </mxGeometry>
        </mxCell>
        <mxCell id="jmuu9kJnYKAgFxGBDwiv-73" value="Adaptee" style="swimlane;fontStyle=1;align=center;verticalAlign=top;childLayout=stackLayout;horizontal=1;startSize=26;horizontalStack=0;resizeParent=1;resizeParentMax=0;resizeLast=0;collapsible=1;marginBottom=0;whiteSpace=wrap;html=1;" parent="1" vertex="1">
          <mxGeometry x="-730" y="1078" width="160" height="52" as="geometry" />
        </mxCell>
        <mxCell id="jmuu9kJnYKAgFxGBDwiv-74" value="+SpecificRequest()" style="text;strokeColor=none;fillColor=none;align=left;verticalAlign=top;spacingLeft=4;spacingRight=4;overflow=hidden;rotatable=0;points=[[0,0.5],[1,0.5]];portConstraint=eastwest;whiteSpace=wrap;html=1;" parent="jmuu9kJnYKAgFxGBDwiv-73" vertex="1">
          <mxGeometry y="26" width="160" height="26" as="geometry" />
        </mxCell>
        <mxCell id="jmuu9kJnYKAgFxGBDwiv-75" value="" style="endArrow=block;endSize=16;endFill=0;html=1;rounded=0;" parent="1" source="jmuu9kJnYKAgFxGBDwiv-70" target="jmuu9kJnYKAgFxGBDwiv-73" edge="1">
          <mxGeometry width="160" relative="1" as="geometry">
            <mxPoint x="-689.9300000000001" y="1228" as="sourcePoint" />
            <mxPoint x="-645.9300000000001" y="1164" as="targetPoint" />
          </mxGeometry>
        </mxCell>
        <mxCell id="jmuu9kJnYKAgFxGBDwiv-76" value="&lt;div&gt;void Request() {&lt;/div&gt;&amp;nbsp; SpecificRequest();&lt;div&gt;}&lt;/div&gt;" style="shape=note;whiteSpace=wrap;html=1;backgroundOutline=1;darkOpacity=0.05;fillColor=#ffff88;strokeColor=#36393d;fontFamily=Consolas;size=15;align=left;spacingLeft=2;" parent="1" vertex="1">
          <mxGeometry x="-1140" y="1232" width="210" height="50" as="geometry" />
        </mxCell>
        <mxCell id="jmuu9kJnYKAgFxGBDwiv-77" style="edgeStyle=orthogonalEdgeStyle;rounded=0;orthogonalLoop=1;jettySize=auto;html=1;" parent="1" source="jmuu9kJnYKAgFxGBDwiv-71" target="jmuu9kJnYKAgFxGBDwiv-76" edge="1">
          <mxGeometry relative="1" as="geometry" />
        </mxCell>
        <mxCell id="jmuu9kJnYKAgFxGBDwiv-78" value="" style="endArrow=open;endSize=12;dashed=1;html=1;rounded=0;" parent="1" source="Fn9HW5KK04FN8IUDYLo9-116" target="Fn9HW5KK04FN8IUDYLo9-94" edge="1">
          <mxGeometry width="160" relative="1" as="geometry">
            <mxPoint x="700" y="2270" as="sourcePoint" />
            <mxPoint x="860" y="2270" as="targetPoint" />
          </mxGeometry>
        </mxCell>
      </root>
    </mxGraphModel>
  </diagram>
</mxfile>
